<svg xmlns="http://www.w3.org/2000/svg" xmlns:xlink="http://www.w3.org/1999/xlink" viewBox="0 0 653.13 200"><defs><style>.cls-1{fill:#fff;}.cls-2{fill:url(#linear-gradient);}.cls-3{fill:url(#linear-gradient-2);}</style><linearGradient id="linear-gradient" x1="166.95" y1="877.64" x2="211.58" y2="758.42" gradientTransform="translate(553.74 -615.72) rotate(45)" gradientUnits="userSpaceOnUse"><stop offset="0" stop-color="#3649ff"/><stop offset="0.93" stop-color="#36f2aa"/><stop offset="1" stop-color="#36ffa4"/></linearGradient><linearGradient id="linear-gradient-2" x1="268.56" y1="703.66" x2="222.23" y2="829.09" xlink:href="#linear-gradient"/></defs><g id="Layer_2" data-name="Layer 2"><g id="Layer_1-2" data-name="Layer 1"><rect class="cls-1" width="653.13" height="200"/><g id="type"><path id="type_PathItem_" data-name="type &lt;PathItem&gt;" d="M296.68,119.82A21.12,21.12,0,0,1,275,98a21.28,21.28,0,0,1,21.72-21.89,21.43,21.43,0,0,1,16.85,7.5L321,77.19a31.1,31.1,0,0,0-24.36-11,32.32,32.32,0,0,0-23.22,9.09A30.51,30.51,0,0,0,264,98a30.51,30.51,0,0,0,9.44,22.77,32.59,32.59,0,0,0,23.22,9,31.92,31.92,0,0,0,24.45-11.21l-7.42-6.45A21.28,21.28,0,0,1,296.68,119.82Z"/><path id="type_CompoundPathItem_" data-name="type &lt;CompoundPathItem&gt;" d="M348.58,82.93a23.9,23.9,0,0,0-17.21,6.8,23.45,23.45,0,0,0,0,33.54,25.21,25.21,0,0,0,34.42,0,23.42,23.42,0,0,0,0-33.54A23.86,23.86,0,0,0,348.58,82.93Zm9.8,33.54a14.18,14.18,0,0,1-19.68,0,14,14,0,0,1-3.89-10,13.65,13.65,0,0,1,3.89-9.89,14,14,0,0,1,19.68,0,13.36,13.36,0,0,1,4,9.89A13.71,13.71,0,0,1,358.38,116.47Z"/><rect id="type_PathItem_2" data-name="type &lt;PathItem&gt;" x="380.27" y="84.25" width="10.59" height="44.49"/><path id="type_PathItem_3" data-name="type &lt;PathItem&gt;" d="M385.57,66.51a6.27,6.27,0,1,0,6.27,6.27A6.26,6.26,0,0,0,385.57,66.51Z"/><path id="type_PathItem_4" data-name="type &lt;PathItem&gt;" d="M424.23,83.37c-6.35,0-11.39,2.91-13.5,7.24V84.25H400.22v44.49h10.51v-25.6a9.92,9.92,0,0,1,10.32-10.33c5.92,0,9.45,3.8,9.45,9.89v26h10.59V101.2C441.09,90.17,434.82,83.37,424.23,83.37Z"/><path id="type_CompoundPathItem_2" data-name="type &lt;CompoundPathItem&gt;" d="M484.52,90.7c-1.5-4.33-6.88-7.42-14.21-7.42A21.16,21.16,0,0,0,454.42,90a22.83,22.83,0,0,0-6.35,16.51,23.17,23.17,0,0,0,6.35,16.59,21.41,21.41,0,0,0,15.89,6.62c7.33,0,12.71-3.09,14.21-7.41v6.44h10.59V84.25H484.52Zm-3.18,25.51a13.21,13.21,0,0,1-9.62,3.88,12.81,12.81,0,0,1-9.44-3.88,14.56,14.56,0,0,1,0-19.42,12.78,12.78,0,0,1,9.44-3.89,13.18,13.18,0,0,1,9.62,3.89,13.86,13.86,0,0,1,0,19.42Z"/><path id="type_CompoundPathItem_3" data-name="type &lt;CompoundPathItem&gt;" d="M538.81,90.7c-1.5-4.33-6.89-7.42-14.21-7.42A21,21,0,0,0,508.8,90a22.42,22.42,0,0,0-6.45,16.33,22.36,22.36,0,0,0,6.36,16.24,21.62,21.62,0,0,0,15.89,6.53c7.06,0,12.36-2.73,14.47-6.53v2.21c0,5.47-1.41,9.27-4.23,11.3q-3.58,2.64-9.8,2.64a27,27,0,0,1-15.27-4.85l-5.12,7.85c6.09,4.33,13.24,6.45,21.54,6.45a25,25,0,0,0,15.71-4.94c6-4.68,7.5-11.21,7.5-21.9V84.25H538.81Zm-3.18,25.24a13.1,13.1,0,0,1-9.62,3.8,12.73,12.73,0,0,1-9.45-3.8,13.4,13.4,0,0,1-3.7-9.62,13.17,13.17,0,0,1,3.7-9.53A12.81,12.81,0,0,1,526,92.9a13.18,13.18,0,0,1,9.62,3.89,12.7,12.7,0,0,1,4,9.53A12.91,12.91,0,0,1,535.63,115.94Z"/><path id="type_CompoundPathItem_4" data-name="type &lt;CompoundPathItem&gt;" d="M579.94,83c-6.79,0-12.35,2.11-16.77,6.44s-6.53,10-6.53,17v.35c0,7,2.21,12.53,6.53,16.68s10.06,6.27,17,6.27a24.67,24.67,0,0,0,18.71-8l-6.35-6.17a16.4,16.4,0,0,1-12,5.11c-7.85,0-13.06-4.58-13.42-11.65h34.61c.08-1.14.17-2.38.17-3.7a22.1,22.1,0,0,0-6.18-16C591.68,85.13,586.39,83,579.94,83Zm-12.53,18.71a9.68,9.68,0,0,1,4-6.89A13.7,13.7,0,0,1,579.94,92a11.42,11.42,0,0,1,7.86,2.91,8.65,8.65,0,0,1,3.35,6.8Z"/></g><g id="logoMark"><path id="logoMark_PathItem_" data-name="logoMark &lt;PathItem&gt;" class="cls-2" d="M103.76,67.39,51.2,120l7.51,7.5a42.49,42.49,0,0,1,60.07,0l7.51-7.5A31.86,31.86,0,0,1,171.34,74.9l7.51-7.51h0A53.11,53.11,0,0,0,103.76,67.39Z"/><path id="logoMark_PathItem_2" data-name="logoMark &lt;PathItem&gt;" class="cls-3" d="M193.87,127.46,246.43,74.9l-7.51-7.51a42.47,42.47,0,0,1-60.07,0l-7.51,7.51a31.86,31.86,0,1,1-45,45.06l-7.51,7.5h0A53.09,53.09,0,0,0,193.87,127.46Z"/></g></g></g></svg>