<svg xmlns="http://www.w3.org/2000/svg" xmlns:xlink="http://www.w3.org/1999/xlink" viewBox="0 0 500 500"><defs><style>.cls-1{fill:#fff;}.cls-2{fill:url(#linear-gradient);}.cls-3{fill:url(#linear-gradient-2);}</style><linearGradient id="linear-gradient" x1="2.37" y1="503.92" x2="93.82" y2="259.66" gradientTransform="translate(404.65 -55.79) rotate(45)" gradientUnits="userSpaceOnUse"><stop offset="0" stop-color="#3649ff"/><stop offset="0.93" stop-color="#36f2aa"/><stop offset="1" stop-color="#36ffa4"/></linearGradient><linearGradient id="linear-gradient-2" x1="210.57" y1="147.46" x2="115.65" y2="404.45" xlink:href="#linear-gradient"/></defs><g id="Layer_2" data-name="Layer 2"><g id="Layer_1-2" data-name="Layer 1"><rect class="cls-1" width="500" height="500"/><g id="logoMark"><path id="logoMark_PathItem_" data-name="logoMark &lt;PathItem&gt;" class="cls-2" d="M157.69,188.46,50,296.15l15.38,15.39a87,87,0,0,1,123.08,0l15.39-15.39a65.27,65.27,0,0,1,92.3-92.3l15.39-15.39h0A108.8,108.8,0,0,0,157.69,188.46Z"/><path id="logoMark_PathItem_2" data-name="logoMark &lt;PathItem&gt;" class="cls-3" d="M342.31,311.54,450,203.85l-15.38-15.39a87,87,0,0,1-123.08,0l-15.39,15.39a65.27,65.27,0,1,1-92.3,92.3l-15.39,15.39h0A108.8,108.8,0,0,0,342.31,311.54Z"/></g></g></g></svg>